<svg width="31" height="31" viewBox="0 0 31 31" fill="none" xmlns="http://www.w3.org/2000/svg">
<g clip-path="url(#clip0)">
<path d="M15.966 3.16157C19.971 3.16157 20.446 3.17657 22.0285 3.24907C26.0935 3.43407 27.9923 5.36282 28.1773 9.39782C28.2498 10.9791 28.2635 11.4541 28.2635 15.4591C28.2635 19.4653 28.2485 19.9391 28.1773 21.5203C27.991 25.5516 26.0973 27.4841 22.0285 27.6691C20.446 27.7416 19.9735 27.7566 15.966 27.7566C11.961 27.7566 11.486 27.7416 9.90475 27.6691C5.82975 27.4828 3.941 25.5453 3.756 21.5191C3.6835 19.9378 3.6685 19.4641 3.6685 15.4578C3.6685 11.4528 3.68475 10.9791 3.756 9.39657C3.94225 5.36282 5.836 3.43282 9.90475 3.24782C11.4873 3.17657 11.961 3.16157 15.966 3.16157ZM15.966 0.457825C11.8923 0.457825 11.3823 0.475325 9.78225 0.547825C4.33475 0.797825 1.30725 3.82032 1.05725 9.27283C0.983503 10.8741 0.966003 11.3841 0.966003 15.4578C0.966003 19.5316 0.983503 20.0428 1.056 21.6428C1.306 27.0903 4.3285 30.1178 9.781 30.3678C11.3823 30.4403 11.8923 30.4578 15.966 30.4578C20.0398 30.4578 20.551 30.4403 22.151 30.3678C27.5935 30.1178 30.6285 27.0953 30.8748 21.6428C30.9485 20.0428 30.966 19.5316 30.966 15.4578C30.966 11.3841 30.9485 10.8741 30.876 9.27407C30.631 3.83157 27.6048 0.799075 22.1523 0.549075C20.551 0.475325 20.0398 0.457825 15.966 0.457825V0.457825ZM15.966 7.75532C11.7123 7.75532 8.2635 11.2041 8.2635 15.4578C8.2635 19.7116 11.7123 23.1616 15.966 23.1616C20.2198 23.1616 23.6685 19.7128 23.6685 15.4578C23.6685 11.2041 20.2198 7.75532 15.966 7.75532ZM15.966 20.4578C13.2048 20.4578 10.966 18.2203 10.966 15.4578C10.966 12.6966 13.2048 10.4578 15.966 10.4578C18.7273 10.4578 20.966 12.6966 20.966 15.4578C20.966 18.2203 18.7273 20.4578 15.966 20.4578ZM23.9735 5.65158C22.9785 5.65158 22.1723 6.45782 22.1723 7.45157C22.1723 8.44532 22.9785 9.25157 23.9735 9.25157C24.9673 9.25157 25.7723 8.44532 25.7723 7.45157C25.7723 6.45782 24.9673 5.65158 23.9735 5.65158Z" fill="#D3C9B9"/>
</g>
<defs>
<clipPath id="clip0">
<rect width="30" height="30" fill="white" transform="translate(0.966003 0.457825)"/>
</clipPath>
</defs>
</svg>
